/* XPM */
static char *_e9d7d4934ad4c1add4a2335ed314b240Wa5CFldyb8pFyKa[] = {
/* columns rows colors chars-per-pixel */
"64 64 155 2 ",
"   c #363D4B",
".  c #3E424E",
"X  c #3E4554",
"o  c #41434F",
"O  c #424653",
"+  c #484651",
"@  c #454956",
"#  c #4A4A54",
"$  c #444B5A",
"%  c #494E5A",
"&  c #514E58",
"*  c #4D525D",
"=  c #505059",
"-  c #56595E",
";  c #5A5A5F",
":  c #454F62",
">  c #465164",
",  c #4A5365",
"<  c #4C566A",
"1  c #4E596D",
"2  c #525663",
"3  c #585761",
"4  c #555B63",
"5  c #5A5E64",
"6  c #535B6D",
"7  c #595E6C",
"8  c #4F5A70",
"9  c #535E72",
"0  c #5E6165",
"q  c #5C626B",
"w  c #566175",
"e  c #596375",
"r  c #576378",
"t  c #5B667A",
"y  c #5E697D",
"u  c #616266",
"i  c #61656A",
"p  c #65696D",
"a  c #6B6C6C",
"s  c #616572",
"d  c #666B73",
"f  c #6A6E72",
"g  c #616B7D",
"h  c #6D7173",
"j  c #69707C",
"k  c #727575",
"l  c #797A76",
"z  c #727578",
"x  c #7B7D7A",
"c  c #7F807D",
"v  c #82837E",
"b  c #89877E",
"n  c #5F6B80",
"m  c #626D83",
"M  c #657084",
"N  c #647085",
"B  c #647086",
"V  c #667187",
"C  c #667287",
"Z  c #6D7583",
"A  c #697284",
"S  c #687386",
"D  c #6B7485",
"F  c #6A7487",
"G  c #6E7687",
"H  c #667288",
"J  c #687389",
"K  c #697489",
"L  c #69748A",
"P  c #6A758A",
"I  c #6A758B",
"U  c #6B768A",
"Y  c #6D798D",
"T  c #6F798C",
"R  c #6E798E",
"E  c #707581",
"W  c #757C87",
"Q  c #717A8A",
"!  c #737C8C",
"~  c #767E8E",
"^  c #6E7A90",
"/  c #727E92",
"(  c #7F8183",
")  c #7F8284",
"_  c #7F8285",
"`  c #7A808A",
"'  c #7E848E",
"]  c #778191",
"[  c #768194",
"{  c #7D8592",
"}  c #7B8494",
"|  c #778298",
" . c #7B8699",
".. c #7E8798",
"X. c #7E8898",
"o. c #7F899C",
"O. c #808385",
"+. c #808386",
"@. c #828585",
"#. c #838587",
"$. c #8C8B83",
"%. c #8E8C83",
"&. c #838688",
"*. c #858789",
"=. c #868889",
"-. c #86898A",
";. c #86898B",
":. c #898B8D",
">. c #898C8D",
",. c #8A8C8D",
"<. c #8A8D8E",
"1. c #918F86",
"2. c #939086",
"3. c #939187",
"4. c #949187",
"5. c #969389",
"6. c #95938A",
"7. c #96938A",
"8. c #979489",
"9. c #98958A",
"0. c #99968C",
"q. c #9B988D",
"w. c #9B998E",
"e. c #9B998F",
"r. c #878E97",
"t. c #898F96",
"y. c #858D9A",
"u. c #848D9B",
"i. c #868E9C",
"p. c #8A9097",
"a. c #88909C",
"s. c #8A919C",
"d. c #8E959F",
"f. c #919292",
"g. c #9D9B91",
"h. c #A19E94",
"j. c #A3A196",
"k. c #A6A399",
"l. c #A9A69C",
"z. c #ABA99E",
"x. c #808BA0",
"c. c #8D95A2",
"v. c #9097A2",
"b. c #959BA4",
"n. c #999DA3",
"m. c #969DA8",
"M. c #999FA8",
"N. c #9DA2A9",
"B. c #AEABA1",
"V. c #B1AEA4",
"C. c #B3B1A6",
"Z. c #B5B3A9",
"A. c #B9B6AC",
"S. c #BBB8AE",
"D. c #BDBBB1",
/* pixels */
"9 , < < 1 < 1 1 6 1 1 6 6 6 1 w 9 6 e t t e t N g g t g t t g U m m N m m m g t m y t e e g m m y r g y y t t 9 6 6 1 < 6 < , < ",
"1 $ : < 1 1 1 1 1 1 < 1 1 < < < 6 6 w e w w t m m t t e t y g n n m m y y m g t y m t e e y t r 9 t t 9 t r 9 9 1 < , , < , > < ",
"1 > < 1 9 9 9 9 8 8 8 9 w w e e t t t t t t g N g t g t m m m m H m m m m m m m m m m m y y y y y y n n y r 9 9 9 w 1 < 1 < > < ",
"1 < 8 e t m m m n n m S N D ' Q m m g g N N S N g t g N J N m J J H N N m m m H m m m m m y t t m B B B J m m m n m J m j 6 > 1 ",
"1 < 6 D ` ) &.#.) #.-.#.#.) h U D m m m m m H N t g m J U Q ~ S H I Q U N H m N m m V m m m y 9 g d +.;.<.<.<.*.#.#.#.' Q q > < ",
"1 1 w S ) b 2.8.2.4.8.2.2.%.; 6 ] m m m N m H H N Q J U T a.c.u.....u.T H U J U J J J m m m y m 6 3 $.5.w.0.q.9.2.1.b ) g 1 , , ",
"1 1 w n -.4.9.0.9.w.w.w.w.8.0 6 ~ J U N U m L I U ^ / u.[ g g s q g D ! / T I I I J J J J N m U 4 5 $.5.g.0.g.q.w.9.1.-.m < > < ",
"9 8 8 y -.5.8.0.0.0.w.w.w.1.q 6 / { / U H U L Q ~ ^ u.N.e O @ O X $ X q c.[ U ^ U J J V J u.;.a.9 7 1.7.0.0.g.0.w.w.5.+.N 1 < 6 ",
"r 1 9 t #.8.0.0.0.w.e.w.e.%.u $ m ! ] ] / } u.c.x.x.M.M.9 $ $ X $ O O 6 m.c./ ../ / / / / u.D S , q 0.g.g.h.w.w.0.w.0.%.m 8 1 6 ",
"t 9 9 m #.5.e.0.w.e.e.e.e.1.x 3 # @ $ % % 2 3 2 9 7 7 9 % O $ O O X O $ 6 q 7 < 6 2 , , , % $ % ; b g.h.g.j.g.g.w.w.g.f.D w w w ",
"w w e m O.%.0.0.e.g.e.g.w.9.1.4.b c x l z h p p % @ O : $ O $ O X $ $ O @ @ o % f f f z x x +.$.8.g.j.h.g.g.g.g.w.w.w.<.g w w r ",
"t w t U #.1.h.e.e.g.g.h.g.h.g.g.h.h.j.j.j.j.g.8.s % $ O X $ O O @ @ X $ + o $ p 1.0.h.h.h.h.k.k.j.j.h.h.h.g.g.g.w.g.w.<.j r r t ",
"t r S s.-.5.0.g.e.e.e.h.j.j.j.j.j.j.j.k.k.k.k.h.1.x k a a p q q u i p f f k v 8.g.0.k.k.k.k.k.k.j.j.j.h.h.g.g.g.w.w.9.#.t w r t ",
"m r j s.#.b %.0.h.h.h.h.j.k.k.k.j.k.l.l.k.k.k.l.h.q.e.g.z.h.h.h.h.k.k.k.k.k.l.k.k.k.k.k.k.k.k.h.j.j.j.j.j.g.j.g.w.w.2.#.t w r y ",
"y r t T f ; p %.e.j.j.j.k.k.k.k.h.k.k.l.l.l.l.l.l.k.l.l.z.z.z.B.B.B.z.z.l.l.l.z.l.l.k.k.l.l.k.k.j.k.j.k.j.j.g.5.$.h q j n w r g ",
"r t r N g , # p 5.h.h.j.j.k.k.k.k.k.k.l.l.l.l.B.l.l.B.B.V.V.V.B.V.V.B.z.z.l.z.l.l.l.l.l.l.l.l.k.j.l.j.j.k.g.w.1.q @ 6 j H t t N ",
"t r t n } d.4 5 0.h.h.k.k.h.k.l.k.k.l.l.l.l.B.l.z.z.V.z.V.z.z.z.B.B.B.B.z.z.B.l.B.l.l.l.l.k.l.k.l.k.j.j.h.h.g.2.0 0 b.s.m t t m ",
"m t y m H ..e 0 g.h.h.h.k.k.k.l.k.l.k.B.B.l.l.B.z.V.B.V.V.V.V.z.B.V.B.B.B.B.B.z.z.l.z.B.B.B.l.B.l.k.k.k.k.j.j.9.0 6 u.T M y y m ",
"n t n n N | e 5 g.h.h.k.k.k.k.z.z.l.z.l.B.l.B.B.V.V.V.V.V.V.V.z.V.V.V.V.B.B.B.B.B.B.B.l.B.l.B.h.k.k.k.k.k.k.k.w.0 w ! n n n y m ",
"m t n n N } 6 3 g.h.k.h.k.k.k.z.l.l.l.B.B.l.B.B.V.V.V.V.V.V.V.V.V.V.V.V.V.B.V.V.B.B.B.B.l.B.B.k.z.k.k.k.k.k.k.w.q q ^ m n y y t ",
"N n y y m [ w ; g.h.k.l.h.l.h.l.l.z.z.V.B.z.B.V.V.V.V.V.V.C.V.V.V.V.V.V.B.V.V.V.B.B.B.B.l.B.B.B.z.l.k.k.k.z.l.h.u 9 ^ m m n t r ",
"N n n m m [ 6 0 g.l.k.h.l.l.B.B.z.z.z.z.B.z.z.V.V.V.V.V.C.C.V.V.V.Z.V.C.Z.V.V.V.V.B.B.B.B.B.B.k.z.k.z.k.l.k.j.w.4 4 ^ m m n y t ",
"H n m m N } 6 4 g.h.l.h.l.B.B.k.z.z.z.z.B.B.V.V.V.C.C.C.C.C.C.V.V.C.C.Z.Z.Z.Z.V.V.B.B.B.B.B.l.B.z.k.k.l.k.k.j.w.5 q | H n m y y ",
"N m N ~ } a.< q 0.l.h.l.h.l.B.l.z.z.z.z.V.V.V.V.C.C.Z.Z.C.Z.Z.C.Z.Z.Z.Z.Z.V.V.V.V.V.B.V.B.B.B.B.z.z.z.k.k.l.l.h.u 4 u.U N m y m ",
"N n m u.Z 4 $ f q.k.k.k.l.B.B.B.z.B.B.B.V.V.V.V.Z.V.A.Z.Z.Z.Z.Z.Z.Z.Z.Z.Z.Z.Z.V.C.B.C.V.B.B.B.B.B.B.k.B.l.l.l.h.p $ 6 g U m m m ",
"U m m T 6 # a 5.h.l.k.k.h.l.l.B.z.z.z.V.V.V.V.V.Z.Z.Z.Z.Z.A.Z.Z.Z.Z.A.Z.Z.Z.Z.V.C.C.V.V.V.B.B.B.k.k.B.k.k.k.l.k.;.p @ 6 T m n m ",
"J m m N < u 3.k.l.l.z.k.l.B.l.B.B.z.V.V.V.V.V.Z.Z.Z.Z.Z.Z.Z.Z.Z.Z.Z.A.Z.A.Z.Z.Z.C.C.C.V.B.C.B.B.B.B.B.k.l.l.k.k.h.4.7 6 ^ m n m ",
"N m t g 2 3 g.l.h.l.k.z.l.l.B.B.z.B.z.V.V.C.Z.Z.Z.A.A.A.Z.A.Z.Z.Z.A.A.A.A.Z.Z.Z.C.Z.C.C.C.B.B.B.k.B.B.B.B.l.k.l.k.g.7 7 ^ m m H ",
"N y e m 2 0 5.h.l.l.l.h.B.B.l.B.V.B.z.V.V.V.Z.C.Z.S.S.Z.Z.S.A.Z.Z.Z.A.A.A.A.Z.Z.C.Z.C.C.V.V.B.B.B.B.k.B.B.k.j.k.j.g.5 6 H y m m ",
"U m y N 6 p 5.h.l.l.l.l.l.l.l.B.B.z.V.V.C.V.V.C.A.S.S.Z.Z.S.D.S.A.A.A.A.Z.Z.Z.Z.C.C.C.V.C.C.B.B.B.B.B.B.B.l.k.l.k.g.q 6 m t g g ",
"m m m H 4 5 h.k.h.l.l.B.l.l.B.B.z.z.V.V.C.V.V.Z.A.A.A.S.S.D.D.S.A.A.A.A.A.A.A.Z.C.C.C.C.V.V.B.V.B.B.h.B.B.k.l.l.l.g.u 7 m m m m ",
"N U H H < 5 w.k.l.l.l.h.l.B.B.l.z.V.V.V.C.Z.Z.A.A.S.D.D.D.D.D.D.S.A.A.A.A.S.A.A.Z.C.C.C.V.V.V.V.V.B.k.B.l.l.j.l.k.g.5 < H m N J ",
"m n m U 8 w g.j.k.k.l.k.l.z.z.z.B.V.V.C.C.C.Z.Z.A.D.D.D.D.D.D.D.S.S.A.A.A.A.A.A.Z.C.C.V.V.V.V.B.z.z.z.z.l.l.k.l.k.e.0 6 Q N H H ",
"m n m ] q q w.j.k.k.k.l.l.z.z.z.B.V.V.C.Z.Z.Z.Z.Z.A.D.D.D.D.A.S.S.S.A.Z.A.A.Z.A.Z.C.C.C.V.V.B.B.B.z.z.z.l.l.z.l.l.w.u 6 / H m J ",
"n m N U < 0 w.k.j.k.k.k.k.l.z.z.B.B.C.C.V.Z.Z.Z.A.A.D.D.D.D.D.A.S.S.A.A.A.A.Z.Z.C.C.V.V.V.V.z.z.B.B.V.l.l.l.l.l.j.e.u 4 / N n m ",
"H n N N < q g.j.k.k.k.k.k.l.l.z.B.B.N.V.V.Z.V.Z.Z.A.A.D.A.A.A.A.S.S.A.Z.Z.Z.V.Z.C.V.C.Z.V.V.B.V.B.z.z.z.z.l.l.l.k.9.u 0 / U m N ",
"B m B T 9 0 e.j.k.k.k.k.k.l.l.z.B.B.B.V.V.Z.Z.Z.Z.Z.A.A.A.A.A.A.A.A.A.Z.C.C.Z.V.Z.Z.Z.Z.V.V.V.B.B.z.z.l.z.l.l.l.h.8.u 9 ^ m n N ",
"t t N X.q - 4.j.k.k.l.l.k.l.l.z.N.B.B.V.C.V.Z.V.C.Z.A.Z.A.S.A.Z.C.Z.Z.Z.C.C.Z.Z.Z.Z.Z.V.V.V.B.V.B.B.z.z.l.l.l.j.5.$.5 4 [ N m H ",
"y y B a.e X p $.j.k.k.k.k.l.l.z.B.B.V.V.Z.V.Z.Z.V.Z.Z.Z.Z.Z.Z.C.Z.Z.Z.C.C.V.V.C.V.C.Z.V.B.V.B.B.B.z.z.l.z.l.h.e.$.a O e u.H N U ",
"y t m X.D q O h g.k.k.l.k.l.z.l.B.B.V.V.V.Z.C.C.Z.Z.Z.Z.Z.Z.Z.Z.Z.A.A.C.C.C.V.V.V.V.C.C.C.V.B.B.B.z.z.l.l.l.j.b a O 4 m T H m H ",
"g m n N | c.w 0 g.j.k.k.k.l.l.z.z.z.B.V.C.Z.C.C.C.C.Z.Z.Z.Z.Z.Z.Z.Z.Z.Z.C.V.C.C.C.C.C.V.C.V.B.z.B.B.k.B.k.k.j.9.3 6 o.U B m n B ",
"B y n n N [ q 5 g.j.j.k.k.l.l.z.z.B.B.V.Z.Z.C.C.C.C.C.Z.Z.Z.Z.Z.Z.Z.Z.Z.V.V.V.C.C.C.C.V.B.B.z.z.k.k.B.k.k.j.l.e.4 6 X.D H m n H ",
"B m n m B T < 0 g.j.j.k.k.k.l.z.l.z.B.V.V.V.C.V.C.V.V.Z.C.C.Z.Z.Z.Z.Z.Z.V.V.V.C.C.C.C.V.V.B.B.z.B.k.B.h.k.k.k.g.q e u.~ m m n H ",
"m y y m N T w 0 g.k.k.j.k.l.z.z.l.z.B.V.V.V.V.V.V.V.V.Z.V.C.Z.Z.Z.Z.C.V.V.B.V.B.V.C.C.V.C.B.z.l.B.k.k.k.B.k.j.e.0 6 / N m n y m ",
"y y y n N ] 6 4 g.j.j.k.k.l.l.l.l.B.B.B.B.B.B.V.V.C.V.V.V.V.V.V.V.V.V.V.V.B.B.B.V.V.C.V.C.B.z.l.k.B.j.k.k.j.j.p.5 6 ^ B m n n m ",
"n r y m m ] 6 4 g.k.j.k.k.k.k.k.N.k.k.B.B.B.B.B.B.V.V.V.V.V.V.B.B.B.V.B.B.B.B.B.B.V.V.C.C.B.z.l.k.l.k.k.k.k.j.g.q 1 ^ m n n n m ",
"n 9 r m D s.w 0 g.j.k.k.k.k.k.k.l.l.k.B.B.B.B.B.B.V.V.C.V.V.B.B.B.B.B.V.l.l.B.B.z.V.V.V.V.z.z.l.k.k.B.g.k.j.j.0.4 6 U m n n t m ",
"y r t y ] } 6 ; g.h.h.j.j.j.k.k.k.k.k.B.B.B.B.B.V.V.B.B.B.B.B.B.B.B.l.l.l.B.B.l.z.B.V.V.B.z.z.k.k.B.k.k.j.g.h.8.2 1 } / n n r n ",
"t w r ! g < @ p g.j.j.h.j.j.k.k.k.k.l.l.B.l.z.z.B.B.B.B.B.B.B.B.B.l.B.B.l.V.V.l.l.B.B.B.B.l.k.k.k.k.h.h.h.h.h.0.f $ 4 m m t t n ",
"w w e T d 5 f %.g.h.j.g.g.j.j.k.k.k.k.k.l.l.z.l.z.B.B.V.B.B.B.l.B.l.B.B.l.k.h.k.l.l.B.V.B.k.k.k.k.k.k.k.h.h.h.g.$.p 5 d H t t 9 ",
"t w r H *.1.9.w.h.g.j.j.h.j.j.j.k.k.k.l.l.j.j.l.l.k.k.j.h.g.w.1.%.f.g.g.9.5.9.e.g.k.l.l.l.k.k.k.g.B.h.B.h.h.h.w.0.0.$.+.J 9 9 9 ",
"w 9 r m #.9.g.h.j.j.j.j.j.j.e.j.h.j.j.k.l.j.w.f.$.z p q 0 2 4 - * 4 5 5 4 s a O.5.g.j.k.k.k.j.j.g.h.g.g.h.g.g.g.g.g.$.#.N 9 9 9 ",
"t 1 9 m &.0.h.h.h.j.h.j.h.g.g.j.h.j.j.h.k.g.5.1.0 X O @ O # + + $ $ @ $ % O X 5 $.2.8.j.k.k.j.j.B.g.h.h.g.g.g.g.g.0.5.+.m 9 9 9 ",
"9 1 9 m <.0.w.h.g.g.g.h.j.0.1.1.%.v x x z p p i + O O X @ # o X $ @ o $ @   X $ 0 a a a l c v %.f.g.h.g.h.g.g.w.g.g.3.&.m 9 9 y ",
"9 6 6 S <.w.w.g.g.g.h.h.h.0.v 5 $ @ % & , , 2 1 7 7 7 q # O $ % @ X @ # 6 6 6 6 4 4 * , = @ $ * 4 v 5.g.h.g.g.w.g.g.0.:.m 9 9 r ",
"t 9 1 j <.8.9.w.g.g.g.g.g.9.p $ j ] ~ J Q ..c.c.v.N.u.c.6 O $ O X $ + 4 x./  .u.x.u.u.} / T ! A $ q %.w.g.g.g.w.0.g.0.:.m 9 9 9 ",
"w 9 < t ,.9.w.8.e.e.0.g.g.9.0 6 u.Q j g S U / } u.u./ c.e $ O X $ O . e } U T U J I T ^ I ^ t.b.e 5 $.0.g.g.0.g.0.g.9.:.m 9 9 9 ",
"9 1 9 N <.9.8.5.9.e.e.e.0.1.7 6 J t t t m J J T / / ..b.u.E g 9 s g Z u.] U J J U U L L L T s.n.7 4 5.e.0.g.0.0.0.0.1.*.m 9 9 9 ",
"6 9 9 ` -.b b 2.9.8.w.9.2.b 5 6 U g r r t g g J ^ ^ / } }  .v.b.a.c.v.a.~ J I J J H m H H J T a.e 5 5.0.0.0.0.9.7.9.$.*.H 9 9 9 ",
"1 < 9 W -.#.@.#.-.:.<.-.#.#.j T U N y t t t g N I T Y Y Y T } } T J T Q N N H H m m y g m H m S D f -.<.:.t.7.p.:.;.+.W r 9 9 9 ",
"< < 8 w ! p.T ! H m n m m T t.! n y y n y m t t m U I H J N J m S m m g t t m m m y r e g m m g m N H H H Q a.` ;.~ Q m 9 1 1 9 ",
"< > 8 8 e g w w r 9 9 9 w t g g y t t n y m g y n m y m g m H g y m m g e e y m g r e e g t 9 9 e w y 9 r t m 9 r t r 9 9 1 < 1 ",
"< : > 8 8 8 6 9 9 8 9 w w 9 w r w w t y t n y y t e t t t g g t e e e e e 9 r y m t e y y e 9 6 e 9 9 9 6 9 9 9 9 9 1 1 9 8 , , ",
"6 1 < 1 6 1 9 9 9 9 t t w w y y e w y g t t g g t g g g g g g t g g g g g m J m m m y g t y g t e 9 9 9 9 e r r 9 9 1 1 9 9 1 9 "
};
